:version 1.10
:name ASF
:units
  mass 1
  length 1
  angle deg
:documentation
  ASF file generated by Kaydara
:root
  axis xyz
  order  tx ty tz rx ry rz
  position 0 0 0
  orientation 0 0 0
:bonedata
  begin
    id 1
    name LeftUpLegDummy
    direction 1 -2.30186e-007 -8.31532e-007
    length 2.93387
    axis 0 0 0 xyz
  end
  begin
    id 2
    name LeftUpLeg
    direction -1.82929e-007 -1 -1.48925e-009
    length 17.3336
    axis -3.48766 0.00143442 -0.000521554 xyz
    dof rx ry rz
  end
  begin
    id 3
    name LeftLeg
    direction -1.82929e-007 -1 -5.23717e-011
    length 14.9995
    axis 3.68178 -0.00654042 -0.000282425 xyz
    dof rx ry rz
  end
  begin
    id 4
    name LeftFoot
    direction 8.31532e-007 -4.54534e-011 1
    length 6.74421
    axis 1.87234e-006 4.66016e-005 -5.96866e-006 xyz
    dof rx ry rz
  end
  begin
    id 5
    name LeftToes
    direction 0.00818058 -0.00485161 0.999955
    length 3.85048
    axis 1.06247e-005 4.65869e-005 -5.96999e-006 xyz
    dof rx ry rz
  end
  begin
    id 6
    name SpineDummy
    direction -5.8607e-008 0.943407 -0.331637
    length 5.93572
    axis 0 0 0 xyz
  end
  begin
    id 7
    name Spine
    direction -1.04988e-007 0.999988 0.00495137
    length 10.1015
    axis -0.001389 0.000121417 6.61666e-006 xyz
    dof rx ry rz
  end
  begin
    id 8
    name Spine1
    direction 0 0 0
    length 0
    axis -0.001389 0.00012144 6.56766e-006 xyz
    dof rx ry rz
  end
  begin
    id 9
    name RightShoulderDummy
    direction -0.98348 0.17941 -0.0240696
    length 3.59882
    axis -0.001389 0.00012144 6.56766e-006 xyz
  end
  begin
    id 10
    name RightShoulder
    direction -0.978693 0.204882 0.0135597
    length 2.70001
    axis 0.215806 0.000203631 -0.00679732 xyz
    dof rx ry rz
  end
  begin
    id 11
    name RightArm
    direction -1 3.85509e-006 8.31394e-007
    length 10.2459
    axis -23.2009 -0.134239 -0.964098 xyz
    dof rx ry rz
  end
  begin
    id 12
    name RightForeArm
    direction -1 3.85569e-006 8.3129e-007
    length 8.16799
    axis -9.92322 0.0658061 0.17887 xyz
    dof rx ry rz
  end
  begin
    id 13
    name RightHand
    direction -0.992843 -0.0414604 0.112003
    length 5.28593
    axis -0.00960638 0.00330669 -0.185225 xyz
    dof rx ry rz
  end
  begin
    id 14
    name LeftShoulder1Dummy
    direction 0.983523 0.179172 -0.0240748
    length 3.59866
    axis -0.001389 0.00012144 6.56766e-006 xyz
  end
  begin
    id 15
    name LeftShoulder1
    direction 0.978627 0.205195 0.0135605
    length 2.70019
    axis -0.001389 0.00012144 6.57583e-006 xyz
    dof rx ry rz
  end
  begin
    id 16
    name LeftArm
    direction 1 3.51895e-006 -8.60188e-007
    length 10.2459
    axis -23.1894 0.134785 0.967513 xyz
    dof rx ry rz
  end
  begin
    id 17
    name LeftForeArm
    direction 1 3.51921e-006 -7.32029e-007
    length 8.16799
    axis -9.91835 -0.0656957 -0.177789 xyz
    dof rx ry rz
  end
  begin
    id 18
    name LeftHand
    direction 0.992938 -0.0411636 0.11126
    length 5.32135
    axis -0.00960237 -0.00340661 0.185177 xyz
    dof rx ry rz
  end
  begin
    id 19
    name HEadDummy
    direction 1.01974e-006 0.999861 -0.016675
    length 2.99946
    axis -0.001389 0.00012144 6.56766e-006 xyz
  end
  begin
    id 20
    name HEad
    direction -0.0222689 0.980941 0.193023
    length 5.12695
    axis -0.001389 0.00012144 6.56766e-006 xyz
    dof rx ry rz
  end
  begin
    id 21
    name RightUpLegDummy
    direction -1 2.30186e-007 8.31532e-007
    length 2.93387
    axis 0 0 0 xyz
  end
  begin
    id 22
    name RightUpLeg
    direction -1.82966e-007 -1 1.56832e-007
    length 17.3336
    axis -3.4909 -0.000906625 0.00028951 xyz
    dof rx ry rz
  end
  begin
    id 23
    name RightLeg
    direction -1.82786e-007 -1 -1.80317e-007
    length 14.9995
    axis 3.68513 0.0193739 -0.131021 xyz
    dof rx ry rz
  end
  begin
    id 24
    name RightFoot
    direction 8.31721e-007 -4.63324e-011 1
    length 6.74421
    axis 4.81691e-005 -0.120479 -0.188785 xyz
    dof rx ry rz
  end
  begin
    id 25
    name RightToes
    direction 0.00124746 -0.014064 0.9999
    length 3.85082
    axis 0.000481921 0.542163 -0.142575 xyz
    dof rx ry rz
  end
:hierarchy
  begin
    root LeftUpLegDummy SpineDummy RightUpLegDummy
    LeftUpLegDummy LeftUpLeg
    LeftUpLeg LeftLeg
    LeftLeg LeftFoot
    LeftFoot LeftToes
    SpineDummy Spine
    Spine Spine1
    Spine1 RightShoulderDummy LeftShoulder1Dummy HEadDummy
    RightShoulderDummy RightShoulder
    RightShoulder RightArm
    RightArm RightForeArm
    RightForeArm RightHand
    LeftShoulder1Dummy LeftShoulder1
    LeftShoulder1 LeftArm
    LeftArm LeftForeArm
    LeftForeArm LeftHand
    HEadDummy HEad
    RightUpLegDummy RightUpLeg
    RightUpLeg RightLeg
    RightLeg RightFoot
    RightFoot RightToes
  end

:SAMPLES-PER-SECOND 30
:FULLY-SPECIFIED
:DEGREES
1
root  -4.29238 33.8374 -9.04622 7.24855 79.7977 2.82079
LeftUpLeg  -5.42003 8.38354 -1.79314
LeftLeg  15.5351 5.07859 1.05782
LeftFoot  -7.5492 -0.0352409 -0.664256
LeftToes  -9.54039 7.65994e-007 1.12379e-007
Spine  1.76591 0.204755 -0.83659
Spine1  3.31094 0.195121 -1.3642
RightShoulder  0.029087 5.5408 7.37704
RightArm  -28.7102 -16.6683 75.4931
RightForeArm  32.4308 16.7516 3.03502
RightHand  1.00229 -12.7587 -8.57244
LeftShoulder1  0.0437837 1.02015 -11.1649
LeftArm  -10.615 12.2186 -67.4547
LeftForeArm  29.5078 -15.7919 -2.86441
LeftHand  0.145083 4.37381 3.38489
HEad  -5.82476 1.65365 -0.777403
RightUpLeg  -16.6525 -7.96665 -2.66672
RightLeg  12.6597 9.63843 1.51766
RightFoot  7.32734 -0.055668 1.24607
RightToes  -31.6862 -0.163047 -0.270546
2
root  -4.29238 33.8374 -9.04622 7.26601 79.8215 2.82846
LeftUpLeg  -5.40469 8.33962 -1.79587
LeftLeg  15.4594 5.08941 1.05645
LeftFoot  -7.4478 -0.0352409 -0.664256
LeftToes  -10.1129 7.65994e-007 1.12379e-007
Spine  1.77437 0.204755 -0.826649
Spine1  3.3265 0.181896 -1.34367
RightShoulder  0.0290991 5.56426 7.41933
RightArm  -28.7151 -16.6941 75.4201
RightForeArm  32.3306 16.7322 3.03136
RightHand  1.01843 -12.9375 -8.5899
LeftShoulder1  0.0437837 0.970845 -11.1649
LeftArm  -10.625 12.1969 -67.4499
LeftForeArm  29.4571 -15.8034 -2.86149
LeftHand  0.14489 4.38756 3.38181
HEad  -5.86542 1.59798 -0.775866
RightUpLeg  -16.6582 -8.06654 -2.66143
RightLeg  12.6719 9.71309 1.53142
RightFoot  7.31492 -0.055668 1.24607
RightToes  -31.5903 -0.163047 -0.270546
3
root  -4.29238 33.8374 -9.04622 7.28117 79.835 2.83926
LeftUpLeg  -5.4093 8.33231 -1.79633
LeftLeg  15.4541 5.08671 1.05679
LeftFoot  -7.43181 -0.0352409 -0.664256
LeftToes  -10.1457 7.65994e-007 1.12379e-007
Spine  1.78519 0.204755 -0.82274
Spine1  3.34718 0.171787 -1.3349
RightShoulder  0.0290969 5.586 7.43107
RightArm  -28.7097 -16.6964 75.3926
RightForeArm  32.3268 16.685 3.0223
RightHand  1.01991 -12.9212 -8.61417
LeftShoulder1  0.0437837 0.95068 -11.1649
LeftArm  -10.6363 12.161 -67.448
LeftForeArm  29.469 -15.8197 -2.85737
LeftHand  0.144933 4.36931 3.36856
HEad  -5.93696 1.57644 -0.738372
RightUpLeg  -16.6712 -8.06256 -2.66041
RightLeg  12.6856 9.68827 1.52989
RightFoot  7.32405 -0.055668 1.24607
RightToes  -31.6429 -0.163047 -0.270546
4
root  -4.29238 33.8374 -9.0442 7.3016 79.8582 2.85715
LeftUpLeg  -5.42461 8.30725 -1.79789
LeftLeg  15.4755 5.0936 1.0602
LeftFoot  -7.43652 -0.0352409 -0.664256
LeftToes  -10.1006 7.65994e-007 1.12379e-007
Spine  1.79771 0.203581 -0.821034
Spine1  3.37093 0.164137 -1.329
RightShoulder  0.0290928 5.61128 7.4415
RightArm  -28.715 -16.6963 75.3754
RightForeArm  32.331 16.6355 3.01279
RightHand  1.0202 -12.9345 -8.62835
LeftShoulder1  0.0437837 0.933311 -11.1719
LeftArm  -10.6629 12.1047 -67.4359
LeftForeArm  29.4845 -15.8194 -2.85626
LeftHand  0.145529 4.36891 3.41655
HEad  -5.93535 1.53033 -0.69045
RightUpLeg  -16.6843 -8.08593 -2.65643
RightLeg  12.7128 9.6808 1.53341
RightFoot  7.31078 -0.055668 1.24607
RightToes  -31.6219 -0.163047 -0.270546
5
root  -4.29053 33.8374 -9.04106 7.31532 79.8715 2.86819
LeftUpLeg  -5.44313 8.28016 -1.79687
LeftLeg  15.5185 5.10776 1.06714
LeftFoot  -7.45133 -0.0352409 -0.664256
LeftToes  -10.1098 7.65994e-007 1.12379e-007
Spine  1.8082 0.20391 -0.820109
Spine1  3.39048 0.166303 -1.32514
RightShoulder  0.0290887 5.6316 7.44852
RightArm  -28.74 -16.6954 75.367
RightForeArm  32.3189 16.5902 3.00412
RightHand  1.02064 -12.9518 -8.64263
LeftShoulder1  0.0437837 0.938082 -11.1907
LeftArm  -10.7162 12.0393 -67.417
LeftForeArm  29.5027 -15.8127 -2.85601
LeftHand  0.14532 4.38301 3.41248
HEad  -5.84657 1.48667 -0.652885
RightUpLeg  -16.6911 -8.10726 -2.65277
RightLeg  12.7364 9.69128 1.53912
RightFoot  7.29997 -0.055668 1.24607
RightToes  -31.6774 -0.163047 -0.270546
6
root  -4.28476 33.8374 -9.03655 7.32529 79.8759 2.87156
LeftUpLeg  -5.4466 8.28113 -1.79152
LeftLeg  15.5362 5.11033 1.06932
LeftFoot  -7.47659 -0.0352409 -0.664256
LeftToes  -10.1269 7.65994e-007 1.12379e-007
Spine  1.81351 0.209499 -0.818767
Spine1  3.39966 0.175882 -1.32148
RightShoulder  0.0290978 5.63195 7.46723
RightArm  -28.7695 -16.6926 75.3594
RightForeArm  32.3429 16.5563 2.99759
RightHand  1.02052 -12.9685 -8.63293
LeftShoulder1  0.0437837 0.954731 -11.2163
LeftArm  -10.7685 11.9885 -67.3972
LeftForeArm  29.5382 -15.8023 -2.85401
LeftHand  0.145751 4.36085 3.42724
HEad  -5.79431 1.48795 -0.653088
RightUpLeg  -16.6925 -8.13736 -2.64536
RightLeg  12.7584 9.71765 1.54707
RightFoot  7.26945 -0.0555484 1.24421
RightToes  -31.6959 -0.163047 -0.270546
7
root  -4.2794 33.8374 -9.03307 7.32758 79.8749 2.87252
LeftUpLeg  -5.44923 8.27346 -1.7869
LeftLeg  15.5481 5.12232 1.06891
LeftFoot  -7.47483 -0.0351982 -0.664921
LeftToes  -10.2152 7.65994e-007 1.12379e-007
Spine  1.81934 0.214047 -0.817061
Spine1  3.41065 0.184576 -1.31832
RightShoulder  0.0291083 5.62815 7.48544
RightArm  -28.7934 -16.6862 75.3569
RightForeArm  32.3513 16.5585 2.99801
RightHand  1.02197 -12.9521 -8.63262
LeftShoulder1  0.0437837 0.965021 -11.2395
LeftArm  -10.7991 11.9614 -67.38
LeftForeArm  29.5592 -15.7921 -2.85225
LeftHand  0.146332 4.33928 3.45459
HEad  -5.72133 1.47945 -0.686491
RightUpLeg  -16.6917 -8.14076 -2.63982
RightLeg  12.7741 9.72412 1.55081
RightFoot  7.23921 -0.0553733 1.24149
RightToes  -31.6504 -0.163047 -0.270546
8
root  -4.27541 33.8374 -9.03022 7.33694 79.8717 2.87103
LeftUpLeg  -5.45202 8.26587 -1.78543
LeftLeg  15.5488 5.128 1.06904
LeftFoot  -7.48954 -0.0351525 -0.66563
LeftToes  -10.1414 7.65994e-007 1.12379e-007
Spine  1.82568 0.216051 -0.815321
Spine1  3.42347 0.189354 -1.31582
RightShoulder  0.0291132 5.62314 7.49167
RightArm  -28.8069 -16.6799 75.3681
RightForeArm  32.3246 16.5893 3.00393
RightHand  1.02464 -12.9246 -8.65741
LeftShoulder1  0.0437837 0.977919 -11.2535
LeftArm  -10.8224 11.9497 -67.3804
LeftForeArm  29.5306 -15.7842 -2.85058
LeftHand  0.146657 4.35967 3.49842
HEad  -5.68472 1.53082 -0.742114
RightUpLeg  -16.69 -8.13267 -2.63857
RightLeg  12.7732 9.72007 1.55277
RightFoot  7.22616 -0.0551982 1.23878
RightToes  -31.6266 -0.163047 -0.270546
9
root  -4.27191 33.8374 -9.02846 7.34299 79.8678 2.86464
LeftUpLeg  -5.45386 8.26529 -1.78358
LeftLeg  15.5215 5.12908 1.0694
LeftFoot  -7.4826 -0.0351062 -0.66635
LeftToes  -10.105 7.65994e-007 1.12379e-007
Spine  1.83422 0.217054 -0.813877
Spine1  3.44129 0.192312 -1.31364
RightShoulder  0.0291146 5.62236 7.49379
RightArm  -28.831 -16.6613 75.39
RightForeArm  32.3392 16.6464 3.01488
RightHand  1.02468 -12.9358 -8.64434
LeftShoulder1  0.0437837 0.995615 -11.2722
LeftArm  -10.8544 11.9452 -67.396
LeftForeArm  29.5389 -15.7743 -2.85071
LeftHand  0.146474 4.34876 3.47431
HEad  -5.69511 1.57307 -0.830685
RightUpLeg  -16.6885 -8.14117 -2.63385
RightLeg  12.7428 9.7215 1.55296
RightFoot  7.22822 -0.0550786 1.23692
RightToes  -31.5699 -0.163047 -0.270546
10
root  -4.26835 33.8374 -9.02758 7.35249 79.8649 2.86058
LeftUpLeg  -5.45375 8.26731 -1.78145
LeftLeg  15.5166 5.12841 1.06957
LeftFoot  -7.4918 -0.0350613 -0.667048
LeftToes  -10.0868 7.65994e-007 1.12379e-007
Spine  1.84714 0.218671 -0.813059
Spine1  3.4674 0.196477 -1.31206
RightShoulder  0.0291131 5.63189 7.49798
RightArm  -28.8398 -16.6392 75.3933
RightForeArm  32.3715 16.6715 3.01967
RightHand  1.02592 -12.9183 -8.64208
LeftShoulder1  0.0437837 0.996354 -11.2811
LeftArm  -10.8575 11.9555 -67.4276
LeftForeArm  29.5454 -15.7749 -2.8488
LeftHand  0.146232 4.35052 3.45654
HEad  -5.74238 1.63116 -0.861178
RightUpLeg  -16.6887 -8.14922 -2.62799
RightLeg  12.7219 9.73931 1.55001
RightFoot  7.23181 -0.0550698 1.23678
RightToes  -31.6165 -0.163047 -0.270546
11
root  -4.26501 33.8374 -9.02715 7.35738 79.8638 2.85212
LeftUpLeg  -5.45067 8.27015 -1.77947
LeftLeg  15.5183 5.12954 1.06904
LeftFoot  -7.50416 -0.03502 -0.66769
LeftToes  -10.1307 7.65994e-007 1.12379e-007
Spine  1.85945 0.222057 -0.813197
Spine1  3.49179 0.203952 -1.31275
RightShoulder  0.0291072 5.65042 7.50001
RightArm  -28.838 -16.6168 75.392
RightForeArm  32.3664 16.6571 3.02013
RightHand  1.02833 -12.8863 -8.66815
LeftShoulder1  0.0437837 0.994766 -11.2957
LeftArm  -10.845 11.9703 -67.4548
LeftForeArm  29.5621 -15.7717 -2.84817
LeftHand  0.146731 4.31904 3.46864
HEad  -5.7575 1.63751 -0.856736
RightUpLeg  -16.6924 -8.16478 -2.62378
RightLeg  12.7167 9.74722 1.54737
RightFoot  7.2166 -0.0552273 1.23923
RightToes  -31.5986 -0.163047 -0.270546
12
root  -4.25736 33.8374 -9.02729 7.33456 79.8404 2.79925
LeftUpLeg  -5.43999 8.28281 -1.77738
LeftLeg  15.4661 5.13549 1.06733
LeftFoot  -7.49287 -0.0349844 -0.668242
LeftToes  -10.1274 7.65994e-007 1.12379e-007
Spine  1.86732 0.233986 -0.814621
Spine1  3.50938 0.23023 -1.31852
RightShoulder  0.0290944 5.67611 7.49347
RightArm  -28.833 -16.6037 75.3835
RightForeArm  32.3802 16.6528 3.01608
RightHand  1.0279 -12.9213 -8.68745
LeftShoulder1  0.0437837 1.03469 -11.3039
LeftArm  -10.8912 11.998 -67.5274
LeftForeArm  29.4515 -15.8003 -2.85368
LeftHand  0.145842 4.41335 3.48145
HEad  -5.49107 1.4668 -0.702239
RightUpLeg  -16.6771 -8.1854 -2.61135
RightLeg  12.6398 9.79503 1.53863
RightFoot  7.23562 -0.0558189 1.24841
RightToes  -31.579 -0.163047 -0.270546
13
root  -4.24917 33.8391 -9.0286 7.28873 79.828 2.72505
LeftUpLeg  -5.42653 8.29222 -1.77632
LeftLeg  15.4094 5.14453 1.06462
LeftFoot  -7.47405 -0.0349569 -0.668671
LeftToes  -10.164 7.65994e-007 1.12379e-007
Spine  1.85978 0.247214 -0.819758
Spine1  3.49592 0.2578 -1.32947
RightShoulder  0.0290784 5.6878 7.46993
RightArm  -28.8176 -16.6221 75.3812
RightForeArm  32.4086 16.6608 3.0176
RightHand  1.02709 -12.915 -8.66461
LeftShoulder1  0.0437837 1.05276 -11.3047
LeftArm  -10.9511 12.0318 -67.582
LeftForeArm  29.4357 -15.7927 -2.85224
LeftHand  0.145495 4.42013 3.46
HEad  -4.79392 0.978741 -0.481462
RightUpLeg  -16.6634 -8.19204 -2.59945
RightLeg  12.5774 9.81425 1.53073
RightFoot  7.25933 -0.0562237 1.25469
RightToes  -31.6182 -0.163047 -0.270546
14
root  -4.23928 33.8411 -9.03272 7.26355 79.848 2.67274
LeftUpLeg  -5.42495 8.28187 -1.77855
LeftLeg  15.3768 5.14235 1.06113
LeftFoot  -7.47861 -0.0349516 -0.668752
LeftToes  -10.1328 7.65994e-007 1.12379e-007
Spine  1.84288 0.25207 -0.830167
Spine1  3.46333 0.268148 -1.35068
RightShoulder  0.029073 5.67482 7.44925
RightArm  -28.8059 -16.6495 75.3702
RightForeArm  32.4579 16.6888 3.02293
RightHand  1.02745 -12.8709 -8.65325
LeftShoulder1  0.0437837 1.0567 -11.2931
LeftArm  -10.983 12.0753 -67.633
LeftForeArm  29.4632 -15.7742 -2.8487
LeftHand  0.146582 4.37414 3.50525
HEad  -3.56852 0.112102 -0.19844
RightUpLeg  -16.6503 -8.31772 -2.59219
RightLeg  12.5294 9.93366 1.5407
RightFoot  7.28506 -0.0575074 1.27461
RightToes  -31.6838 -0.163047 -0.270546
